# xmcd
#
# Track frame offsets: 
#        150
#        14427
#        36683
#        52627
#        65506
#        81200
#        101435
#        121450
#        140852
#        158670
#
# Disc length: 2832 seconds
#
# Revision: 0
# Processed by: cddbd v1.5.2PL0 Copyright (c) Steve Scherf et al.
# Submitted via: ExactAudioCopy v0.99pb3
#
DISCID=850b0e0a
DTITLE=Magnolia - Hope for Hope
DYEAR=2006
DGENRE=A Cappella
TTITLE0=Trouble Below
TTITLE1=Hope for Hope
TTITLE2=Light in the Basement
TTITLE3=Blue Chevelle (all of my days)
TTITLE4=Driver and Car
TTITLE5=Arlington Heights
TTITLE6=Secret Summer Style
TTITLE7=Hang On
TTITLE8=Scene Leaver
TTITLE9=Things I Don't
EXTD=
EXTT0=
EXTT1=
EXTT2=
EXTT3=
EXTT4=
EXTT5=
EXTT6=
EXTT7=
EXTT8=
EXTT9=
PLAYORDER=
